<svg width="70" height="70" viewBox="0 0 70 70" fill="none" xmlns="http://www.w3.org/2000/svg">
<path d="M59.6392 59.9399C56.3788 63.201 52.4967 65.7717 48.224 67.4989C43.9513 69.2261 39.3754 70.0744 34.7686 69.9935C30.1907 70.0836 25.6425 69.2378 21.4019 67.5078C17.1612 65.7777 13.3173 63.1997 10.1048 59.9313C6.81669 56.7242 4.22329 52.8731 2.48623 48.6179C0.749174 44.3627 -0.0943081 39.7947 0.00836463 35.1986C0.00836463 25.1422 3.37958 16.7627 10.122 10.0604C13.3365 6.79283 17.1823 4.21608 21.4244 2.48752C25.6665 0.758947 30.2158 -0.0851533 34.7945 0.00677779C39.4003 -0.0713788 43.9748 0.779138 48.2459 2.50775C52.517 4.23635 56.3975 6.80774 59.6565 10.069C66.5482 16.7771 69.9941 25.1594 69.9941 35.2159C70.0812 39.832 69.2051 44.4155 67.4221 48.6729C65.639 52.9303 62.9881 56.7679 59.6392 59.9399Z" fill="#FCB251"/>
<path fill-rule="evenodd" clip-rule="evenodd" d="M38.967 14.9419C41.2901 14.9423 43.5634 15.615 45.5126 16.8788C47.4618 18.1427 49.0036 19.9437 49.9518 22.0644C50.9 24.1851 51.2142 26.535 50.8564 28.8304C50.4986 31.1257 49.4841 33.2685 47.9354 35C49.462 36.7068 50.4699 38.8137 50.841 41.0733C51.212 43.333 50.9306 45.6516 50.0299 47.7569C49.1292 49.8622 47.6466 51.6669 45.7561 52.959C43.8655 54.2511 41.6456 54.9771 39.3569 55.0517L38.967 55.0581H23.2896C22.4151 55.0581 21.6946 54.397 21.6031 53.5481L21.5935 53.362V40.2167H29.6167V46.2823C29.6167 46.6513 29.8815 46.9594 30.2329 47.022L30.3677 47.0348H38.967C40.0099 47.0374 41.0127 46.6337 41.763 45.9094C42.5133 45.1851 42.952 44.1972 42.9862 43.1549C43.0205 42.1126 42.6475 41.098 41.9463 40.326C41.2451 39.5541 40.2709 39.0855 39.2302 39.0196L38.967 39.0116H30.8202V30.9884H38.967C40.0099 30.9909 41.0127 30.5873 41.763 29.863C42.5133 29.1387 42.952 28.1507 42.9862 27.1084C43.0205 26.0661 42.6475 25.0515 41.9463 24.2795C41.2451 23.5076 40.2709 23.039 39.2302 22.9732L38.967 22.9651H30.3677C30.1919 22.965 30.0217 23.0266 29.8868 23.1392C29.7519 23.2519 29.6608 23.4083 29.6296 23.5813L29.6167 23.7177V29.7833H21.5935V16.6364C21.5935 15.7635 22.2546 15.0446 23.1035 14.9515L23.288 14.9419H38.967ZM28.9989 30.9884C29.2974 30.9884 29.5445 31.2002 29.6039 31.481L29.6167 31.6062V38.3938C29.6167 38.5362 29.5674 38.6741 29.4774 38.7843C29.3873 38.8946 29.262 38.9703 29.1225 38.9988L28.9989 39.0116H22.2113C22.0691 39.0119 21.9312 38.963 21.8209 38.8732C21.7107 38.7834 21.6348 38.6583 21.6063 38.519L21.5935 38.3954V31.6062C21.5935 31.3077 21.8053 31.059 22.0861 31.0012L22.2097 30.9884H28.9973H28.9989ZM20.3884 30.9884V39.0084H18.7966C15.8681 38.8126 15 35 15 35C15 35 15.8039 31.4633 18.4789 31.0269L18.7966 30.9884H20.3884ZM27.6157 32.6797H23.5929C23.5254 32.6794 23.4597 32.7015 23.406 32.7424C23.3524 32.7833 23.3137 32.8408 23.296 32.9059L23.2848 32.9878V37.009C23.2848 37.1502 23.3811 37.2706 23.5094 37.3059L23.5929 37.3171H27.6125C27.7553 37.3171 27.8741 37.2208 27.911 37.0924L27.9222 37.009V35.8456H26.2197C26.0088 35.8448 25.8058 35.7654 25.6504 35.6229C25.4949 35.4803 25.3983 35.285 25.3792 35.075C25.3601 34.8649 25.4201 34.6553 25.5473 34.4872C25.6746 34.319 25.86 34.2043 26.0673 34.1656L26.2197 34.1527H27.9238V32.9878C27.9238 32.9472 27.9158 32.907 27.9002 32.8695C27.8846 32.832 27.8618 32.798 27.833 32.7693C27.8042 32.7407 27.7701 32.718 27.7325 32.7027C27.695 32.6873 27.6563 32.6795 27.6157 32.6797ZM37.4859 33.9842C37.2174 33.9842 36.9598 34.0909 36.77 34.2808C36.5801 34.4707 36.4734 34.7282 36.4734 34.9968C36.4734 35.2653 36.5801 35.5229 36.77 35.7127C36.9598 35.9026 37.2174 36.0093 37.4859 36.0093C37.7545 36.0093 38.012 35.9026 38.2019 35.7127C38.3918 35.5229 38.4985 35.2653 38.4985 34.9968C38.4985 34.7282 38.3918 34.4707 38.2019 34.2808C38.012 34.0909 37.7545 33.9842 37.4859 33.9842ZM33.8017 33.9842C33.6686 33.9841 33.5368 34.0102 33.4138 34.0611C33.2908 34.1119 33.1791 34.1865 33.0849 34.2805C32.8947 34.4704 32.7877 34.728 32.7875 34.9968C32.7873 35.2655 32.8939 35.5234 33.0837 35.7135C33.2736 35.9037 33.5313 36.0107 33.8 36.0109C34.0688 36.0111 34.3266 35.9046 34.5168 35.7147C34.707 35.5248 34.814 35.2671 34.8142 34.9984C34.8144 34.7296 34.7078 34.4718 34.518 34.2816C34.3281 34.0914 34.0704 33.9845 33.8017 33.9842Z" fill="white"/>
</svg>
